<svg width="38" height="38" viewBox="0 0 38 38" fill="none" xmlns="http://www.w3.org/2000/svg">
<path d="M22.7501 20.2499C22.0588 20.2499 21.5001 20.81 21.5001 21.4998V26.5C21.5001 27.1887 20.9401 27.7499 20.25 27.7499H16.5V8.99992C16.5 7.93242 15.82 6.97867 14.7975 6.62367L14.4274 6.49985H20.25C20.9401 6.49985 21.5001 7.06107 21.5001 7.75V11.5C21.5001 12.1898 22.0588 12.7499 22.7501 12.7499C23.4413 12.7499 24 12.1898 24 11.5V7.75C24 5.68251 22.3175 4 20.25 4H6.81251C6.7649 4 6.72508 4.02129 6.67884 4.02747C6.61865 4.02243 6.5612 4 6.50009 4C5.1213 4 4 5.12106 4 6.49985V28.9998C4 30.0674 4.68001 31.0211 5.70243 31.3761L13.2251 33.8837C13.4801 33.9625 13.7337 34 14.0001 34C15.3789 34 16.5 32.8787 16.5 31.4999V30.25H20.25C22.3175 30.25 24 28.5675 24 26.5V21.4998C24 20.81 23.4413 20.2499 22.7501 20.2499Z" fill="#383838"/>
<path d="M33.6268 15.581L28.5359 10.3812C28.1721 10.0094 27.6247 9.89757 27.1489 10.0989C26.6742 10.3005 26.3635 10.7749 26.3635 11.3003V15.2001H21.2728C20.5702 15.2001 20 15.7823 20 16.5C20 17.2177 20.5702 17.7999 21.2728 17.7999H26.3635V21.6997C26.3635 22.2251 26.6742 22.6994 27.1489 22.9011C27.6247 23.1024 28.1721 22.9906 28.5359 22.619L33.6268 17.419C34.1244 16.9108 34.1244 16.0892 33.6268 15.581Z" fill="#383838"/>
</svg>
