<svg width="19" height="23" viewBox="0 0 19 23" fill="none" xmlns="http://www.w3.org/2000/svg">
<rect width="19" height="23" fill="#F5F5F5"/>
<rect width="1920" height="1898" transform="translate(-1817 -171)" fill="white"/>
<rect x="-206" y="-26" width="259" height="75" rx="13" fill="#0071BC"/>
<path fill-rule="evenodd" clip-rule="evenodd" d="M10.625 13.8465V10.375C10.625 9.75367 10.1213 9.25 9.5 9.25C8.87867 9.25 8.375 9.75367 8.375 10.375V13.8465L7.48299 12.9545C7.04366 12.5152 6.33135 12.5152 5.892 12.9545C5.45267 13.3938 5.45267 14.1062 5.892 14.5455L8.14202 16.7955C8.89205 17.5455 10.108 17.5455 10.858 16.7955L13.108 14.5455C13.5473 14.1062 13.5473 13.3938 13.108 12.9545C12.6687 12.5152 11.9563 12.5152 11.517 12.9545L10.625 13.8465ZM10.0423 0.24988C10.8059 0.24871 11.4836 0.247675 12.1096 0.506954C12.7355 0.766233 13.2141 1.2462 13.7532 1.78702C14.8215 2.8586 15.8915 3.92856 16.963 4.99685C17.5038 5.53601 17.9839 6.01452 18.2431 6.64047C18.5024 7.26643 18.5014 7.94417 18.5001 8.70783C18.4958 11.5383 18.5 14.3686 18.5 17.1991C18.5001 18.1965 18.5001 19.0557 18.4076 19.7438C18.3084 20.4812 18.0849 21.1882 17.5115 21.7616C16.9382 22.3349 16.2312 22.5585 15.4938 22.6576C14.8056 22.7501 13.9463 22.7501 12.949 22.75H6.05098C5.05367 22.7501 4.19437 22.7501 3.50624 22.6576C2.76879 22.5585 2.0619 22.3349 1.48852 21.7616C0.915151 21.1882 0.691568 20.4812 0.592421 19.7438C0.499901 19.0557 0.499947 18.1965 0.500003 17.1991L0.500014 5.87505C0.500014 5.85028 0.500003 5.82558 0.500003 5.80099C0.499947 4.80369 0.499901 3.9444 0.592421 3.25627C0.691568 2.51883 0.91515 1.81193 1.48853 1.23856C2.0619 0.665186 2.76879 0.441603 3.50624 0.342457C4.19436 0.249937 5.05365 0.249982 6.05096 0.250038C7.3814 0.250117 8.71183 0.251928 10.0423 0.24988Z" fill="white"/>
</svg>
